<?xml version="1.0" encoding="UTF-8" standalone="no" ?>
<!DOCTYPE svg PUBLIC "-//W3C//DTD SVG 1.1//EN" "http://www.w3.org/Graphics/SVG/1.1/DTD/svg11.dtd">
<svg xmlns="http://www.w3.org/2000/svg" xmlns:xlink="http://www.w3.org/1999/xlink" version="1.1" width="640" height="480" viewBox="0 0 640 480" xml:space="preserve">
<desc>Created with Fabric.js 3.6.3</desc>
<defs>
</defs>
<g transform="matrix(2.39 0 0 2.39 304.73 234.88)"  >
<g style=""   >
		<g transform="matrix(1.01 0 0 1.01 29.15 44.38)"  >
<path style="stroke: none; stroke-width: 1; stroke-dasharray: none; stroke-linecap: butt; stroke-dashoffset: 0; stroke-linejoin: miter; stroke-miterlimit: 4; fill: rgb(104,225,253); fill-rule: nonzero; opacity: 1;"  transform=" translate(-228.96, -193.14)" d="M 220.28 162.2 H 237.7 A 30.7 30.7 0 0 1 267 183.9 l 9.41 30.69 a 7.33 7.33 0 0 1 -7 9.49 h -80.9 a 7.33 7.33 0 0 1 -7 -9.49 l 9.41 -30.69 A 30.7 30.7 0 0 1 220.28 162.2 Z" stroke-linecap="round" />
</g>
		<g transform="matrix(1.01 0 0 1.01 29.16 44.37)"  >
<path style="stroke: none; stroke-width: 1; stroke-dasharray: none; stroke-linecap: butt; stroke-dashoffset: 0; stroke-linejoin: miter; stroke-miterlimit: 4; fill: rgb(9,63,104); fill-rule: nonzero; opacity: 1;"  transform=" translate(-228.98, -193.14)" d="M 269.44 225.08 h -80.9 a 8.34 8.34 0 0 1 -8 -10.78 L 190 183.61 a 31.54 31.54 0 0 1 30.3 -22.41 H 237.7 A 31.54 31.54 0 0 1 268 183.61 l 9.41 30.69 a 8.34 8.34 0 0 1 -8 10.78 Z M 220.28 163.2 a 29.55 29.55 0 0 0 -28.39 21 l -9.41 30.69 a 6.35 6.35 0 0 0 6.06 8.2 h 80.9 a 6.35 6.35 0 0 0 6.06 -8.2 l -9.41 -30.69 a 29.55 29.55 0 0 0 -28.39 -21 Z" stroke-linecap="round" />
</g>
		<g transform="matrix(1.01 0 0 1.01 29.39 14.99)"  >
<path style="stroke: none; stroke-width: 1; stroke-dasharray: none; stroke-linecap: butt; stroke-dashoffset: 0; stroke-linejoin: miter; stroke-miterlimit: 4; fill: rgb(255,201,176); fill-rule: nonzero; opacity: 1;"  transform=" translate(-228.98, -164.06)" d="M 223.67 158.74 h 10.64 a 0 0 0 0 1 0 0 v 6.12 a 4.52 4.52 0 0 1 -4.52 4.52 h -1.61 a 4.52 4.52 0 0 1 -4.52 -4.52 v -6.12 A 0 0 0 0 1 223.67 158.74 Z" stroke-linecap="round" />
</g>
		<g transform="matrix(1.01 0 0 1.01 29.39 14.98)"  >
<path style="stroke: none; stroke-width: 1; stroke-dasharray: none; stroke-linecap: butt; stroke-dashoffset: 0; stroke-linejoin: miter; stroke-miterlimit: 4; fill: rgb(9,63,104); fill-rule: nonzero; opacity: 1;"  transform=" translate(-228.99, -164.06)" d="M 229.79 170.37 h -1.6 a 5.52 5.52 0 0 1 -5.52 -5.51 v -6.12 a 1 1 0 0 1 1 -1 h 10.64 a 1 1 0 0 1 1 1 v 6.12 A 5.52 5.52 0 0 1 229.79 170.37 Z m -5.12 -10.63 v 5.12 a 3.52 3.52 0 0 0 3.52 3.51 h 1.6 a 3.52 3.52 0 0 0 3.52 -3.51 v -5.12 Z" stroke-linecap="round" />
</g>
		<g transform="matrix(1.01 0 0 1.01 28.81 -55.36)"  >
<path style="stroke: none; stroke-width: 1; stroke-dasharray: none; stroke-linecap: butt; stroke-dashoffset: 0; stroke-linejoin: miter; stroke-miterlimit: 4; fill: rgb(114,88,88); fill-rule: nonzero; opacity: 1;"  transform=" translate(-228.6, -94.9)" d="M 192.27 129.23 c -4.94 -1.87 -4.64 -5.65 -5.38 -10.49 a 123.35 123.35 0 0 1 -1.37 -14.48 c -0.19 -5.51 0 -11.17 2.1 -16.28 c 2.69 -6.57 8 -10.81 15.09 -10.23 c -0.21 -9.68 5.6 -18.76 15.89 -19.31 c 16.49 -0.88 26 16.83 35.21 15.51 s 11.68 -5.42 11.68 -5.42 a 16.92 16.92 0 0 1 -2 18.67 s 7.27 -2.12 8.15 7.55 s -4.91 35.37 -4.91 35.37 L 260.16 129 c -2.77 -0.49 -6.23 0.19 -9 0.28 l -20.61 0.64 C 220.21 130.21 203.49 133.47 192.27 129.23 Z" stroke-linecap="round" />
</g>
		<g transform="matrix(1.01 0 0 1.01 28.82 -55.38)"  >
<path style="stroke: none; stroke-width: 1; stroke-dasharray: none; stroke-linecap: butt; stroke-dashoffset: 0; stroke-linejoin: miter; stroke-miterlimit: 4; fill: rgb(9,63,104); fill-rule: nonzero; opacity: 1;"  transform=" translate(-228.61, -94.88)" d="M 207.13 132.38 c -5.42 0 -10.75 -0.53 -15.22 -2.22 h 0 c -4.79 -1.82 -5.23 -5.28 -5.74 -9.29 q -0.12 -1 -0.27 -2 a 125 125 0 0 1 -1.38 -14.6 c -0.18 -5.17 -0.06 -11.21 2.18 -16.68 c 2.85 -7 8.17 -10.91 14.7 -10.91 h 0.31 c 0.22 -9.31 5.93 -18.68 16.84 -19.26 c 9.59 -0.5 17 5.09 22.92 9.58 c 4.58 3.47 8.54 6.46 12.19 5.94 c 8.55 -1.22 11 -4.91 11 -4.95 a 1 1 0 0 1 0.86 -0.47 a 1 1 0 0 1 0.86 0.49 c 0.05 0.09 5.06 8.92 -0.76 18 a 6.83 6.83 0 0 1 3.48 1.14 c 2 1.4 3.25 3.92 3.57 7.51 c 0.89 9.72 -4.68 34.62 -4.92 35.68 a 1 1 0 0 1 -1.15 0.76 L 260 130 a 23.69 23.69 0 0 0 -5.87 0.08 c -1 0.1 -2 0.19 -3 0.22 l -20.61 0.64 c -2.57 0.08 -5.59 0.35 -8.78 0.63 C 217.23 131.93 212.14 132.38 207.13 132.38 Z m -14.51 -4.09 c 8.18 3.1 19.71 2.07 29 1.24 c 3.22 -0.29 6.27 -0.56 8.9 -0.64 l 20.61 -0.64 c 0.87 0 1.82 -0.12 2.82 -0.21 a 25 25 0 0 1 6.4 -0.06 h 0 c 0.35 0 1.49 0.25 5.65 1 c 1 -4.68 5.44 -25.75 4.68 -34.13 c -0.27 -3 -1.17 -5 -2.69 -6 a 5.46 5.46 0 0 0 -4.18 -0.66 a 1 1 0 0 1 -1.11 -0.41 a 1 1 0 0 1 0.06 -1.18 a 15.72 15.72 0 0 0 2.5 -16.24 c -1.53 1.44 -4.86 3.69 -11.29 4.61 c -4.48 0.63 -8.75 -2.59 -13.69 -6.32 c -6 -4.53 -12.75 -9.65 -21.6 -9.18 c -10.06 0.53 -15.14 9.61 -14.95 18.29 a 1 1 0 0 1 -0.32 0.75 a 1 1 0 0 1 -0.77 0.27 c -6.24 -0.52 -11.37 3 -14.07 9.61 c -2.09 5.13 -2.2 10.9 -2 15.86 a 123 123 0 0 0 1.35 14.36 c 0.11 0.71 0.2 1.38 0.28 2 c 0.48 3.78 0.8 6.28 4.47 7.67 Z" stroke-linecap="round" />
</g>
		<g transform="matrix(1.01 0 0 1.01 -1.48 -18.47)"  >
<ellipse style="stroke: none; stroke-width: 1; stroke-dasharray: none; stroke-linecap: butt; stroke-dashoffset: 0; stroke-linejoin: miter; stroke-miterlimit: 4; fill: rgb(255,201,176); fill-rule: nonzero; opacity: 1;"  cx="0" cy="0" rx="10.33" ry="8.9" />
</g>
		<g transform="matrix(1.01 0 0 1.01 -1.49 -18.49)"  >
<path style="stroke: none; stroke-width: 1; stroke-dasharray: none; stroke-linecap: butt; stroke-dashoffset: 0; stroke-linejoin: miter; stroke-miterlimit: 4; fill: rgb(9,63,104); fill-rule: nonzero; opacity: 1;"  transform=" translate(-198.59, -131.09)" d="M 198.59 141 c -6.25 0 -11.33 -4.44 -11.33 -9.9 s 5.08 -9.91 11.33 -9.91 s 11.34 4.45 11.34 9.91 S 204.84 141 198.59 141 Z m 0 -17.81 c -5.14 0 -9.33 3.55 -9.33 7.91 s 4.19 7.9 9.33 7.9 s 9.34 -3.54 9.34 -7.9 S 203.74 123.2 198.59 123.2 Z" stroke-linecap="round" />
</g>
		<g transform="matrix(1.01 0 0 1.01 59.67 -18.47)"  >
<ellipse style="stroke: none; stroke-width: 1; stroke-dasharray: none; stroke-linecap: butt; stroke-dashoffset: 0; stroke-linejoin: miter; stroke-miterlimit: 4; fill: rgb(255,201,176); fill-rule: nonzero; opacity: 1;"  cx="0" cy="0" rx="10.33" ry="8.9" />
</g>
		<g transform="matrix(1.01 0 0 1.01 59.66 -18.49)"  >
<path style="stroke: none; stroke-width: 1; stroke-dasharray: none; stroke-linecap: butt; stroke-dashoffset: 0; stroke-linejoin: miter; stroke-miterlimit: 4; fill: rgb(9,63,104); fill-rule: nonzero; opacity: 1;"  transform=" translate(-258.83, -131.09)" d="M 258.84 141 c -6.25 0 -11.34 -4.44 -11.34 -9.9 s 5.09 -9.91 11.34 -9.91 s 11.33 4.45 11.33 9.91 S 265.09 141 258.84 141 Z m 0 -17.81 c -5.15 0 -9.34 3.55 -9.34 7.91 s 4.19 7.9 9.34 7.9 s 9.33 -3.54 9.33 -7.9 S 264 123.2 258.84 123.2 Z" stroke-linecap="round" />
</g>
		<g transform="matrix(1.01 0 0 1.01 29.27 -23.24)"  >
<path style="stroke: none; stroke-width: 1; stroke-dasharray: none; stroke-linecap: butt; stroke-dashoffset: 0; stroke-linejoin: miter; stroke-miterlimit: 4; fill: rgb(255,201,176); fill-rule: nonzero; opacity: 1;"  transform=" translate(-228.99, -126.53)" d="M 229 160.13 h 0 A 31.17 31.17 0 0 1 197.82 129 V 106.34 c 1.82 3 7.87 1.8 16.74 -13.41 c 33.2 16.82 45.6 7.18 45.6 7.18 V 129 A 31.17 31.17 0 0 1 229 160.13 Z" stroke-linecap="round" />
</g>
		<g transform="matrix(1.01 0 0 1.01 29.25 -23.26)"  >
<path style="stroke: none; stroke-width: 1; stroke-dasharray: none; stroke-linecap: butt; stroke-dashoffset: 0; stroke-linejoin: miter; stroke-miterlimit: 4; fill: rgb(9,63,104); fill-rule: nonzero; opacity: 1;"  transform=" translate(-228.98, -126.51)" d="M 229 161.13 A 32.2 32.2 0 0 1 196.82 129 V 106.34 a 1 1 0 0 1 1.86 -0.52 a 1.66 1.66 0 0 0 1.53 0.83 h 0 c 1.22 0 5.8 -1.07 13.47 -14.23 A 1 1 0 0 1 215 92 c 32.08 16.25 44.42 7.37 44.54 7.28 a 1 1 0 0 1 1.61 0.8 V 129 A 32.2 32.2 0 0 1 229 161.13 Z m -30.17 -52.72 V 129 a 30.17 30.17 0 0 0 60.34 0 V 101.83 c -4.32 2 -17.59 5.68 -44.21 -7.59 c -5.52 9.27 -10.73 14.38 -14.7 14.41 A 3.44 3.44 0 0 1 198.82 108.41 Z" stroke-linecap="round" />
</g>
		<g transform="matrix(1.01 0 0 1.01 49.73 48.79)"  >
<path style="stroke: none; stroke-width: 1; stroke-dasharray: none; stroke-linecap: butt; stroke-dashoffset: 0; stroke-linejoin: miter; stroke-miterlimit: 4; fill: rgb(9,63,104); fill-rule: nonzero; opacity: 1;"  transform=" translate(-249, -197.43)" d="M 249 216.72 a 1 1 0 0 1 -1 -1 V 179.14 a 1 1 0 0 1 2 0 v 36.58 A 1 1 0 0 1 249 216.72 Z" stroke-linecap="round" />
</g>
		<g transform="matrix(1.01 0 0 1.01 9.13 48.79)"  >
<path style="stroke: none; stroke-width: 1; stroke-dasharray: none; stroke-linecap: butt; stroke-dashoffset: 0; stroke-linejoin: miter; stroke-miterlimit: 4; fill: rgb(9,63,104); fill-rule: nonzero; opacity: 1;"  transform=" translate(-209, -197.43)" d="M 209 216.72 a 1 1 0 0 1 -1 -1 V 179.14 a 1 1 0 0 1 2 0 v 36.58 A 1 1 0 0 1 209 216.72 Z" stroke-linecap="round" />
</g>
		<g transform="matrix(1.01 0 0 1.01 29.34 -20.55)"  >
<path style="stroke: none; stroke-width: 1; stroke-dasharray: none; stroke-linecap: butt; stroke-dashoffset: 0; stroke-linejoin: miter; stroke-miterlimit: 4; fill: rgb(9,63,104); fill-rule: nonzero; opacity: 1;"  transform=" translate(-228.93, -129.05)" d="M 228.92 134.69 a 20.75 20.75 0 0 1 -3.13 -0.26 a 1 1 0 0 1 0.35 -2 a 15.28 15.28 0 0 0 4.75 0 c 0.2 -0.92 -1 -4.35 -2.7 -7.58 A 1 1 0 1 1 230 124 c 1.12 2.15 3.63 7.37 2.71 9.42 a 1.72 1.72 0 0 1 -1.16 1 A 10.74 10.74 0 0 1 228.92 134.69 Z" stroke-linecap="round" />
</g>
		<g transform="matrix(1.01 0 0 1.01 14.53 -41.16)"  >
<path style="stroke: none; stroke-width: 1; stroke-dasharray: none; stroke-linecap: butt; stroke-dashoffset: 0; stroke-linejoin: miter; stroke-miterlimit: 4; fill: rgb(9,63,104); fill-rule: nonzero; opacity: 1;"  transform=" translate(-214.37, -108.73)" d="M 222 110.73 h 0 l -15.28 0 a 2 2 0 1 1 0 -4 h 0 l 15.29 0 a 2 2 0 0 1 0 4 Z" stroke-linecap="round" />
</g>
		<g transform="matrix(1.01 0 0 1.01 43.2 -41.16)"  >
<path style="stroke: none; stroke-width: 1; stroke-dasharray: none; stroke-linecap: butt; stroke-dashoffset: 0; stroke-linejoin: miter; stroke-miterlimit: 4; fill: rgb(9,63,104); fill-rule: nonzero; opacity: 1;"  transform=" translate(-242.61, -108.73)" d="M 250.25 110.73 h 0 l -15.28 0 a 2 2 0 1 1 0 -4 h 0 l 15.28 0 a 2 2 0 0 1 0 4 Z" stroke-linecap="round" />
</g>
		<g transform="matrix(1.01 0 0 1.01 14.54 -27.05)"  >
<path style="stroke: none; stroke-width: 1; stroke-dasharray: none; stroke-linecap: butt; stroke-dashoffset: 0; stroke-linejoin: miter; stroke-miterlimit: 4; fill: rgb(255,255,255); fill-rule: nonzero; opacity: 1;"  transform=" translate(-214.38, -122.64)" d="M 205.39 116.21 h 18 a 2.56 2.56 0 0 1 2.56 2.56 v 1.67 a 8.63 8.63 0 0 1 -8.63 8.63 h -5.87 a 8.63 8.63 0 0 1 -8.63 -8.63 v -1.67 A 2.56 2.56 0 0 1 205.39 116.21 Z" stroke-linecap="round" />
</g>
		<g transform="matrix(1.01 0 0 1.01 14.55 -27.06)"  >
<path style="stroke: none; stroke-width: 1; stroke-dasharray: none; stroke-linecap: butt; stroke-dashoffset: 0; stroke-linejoin: miter; stroke-miterlimit: 4; fill: rgb(9,63,104); fill-rule: nonzero; opacity: 1;"  transform=" translate(-214.39, -122.65)" d="M 217.33 130.08 h -5.86 a 9.64 9.64 0 0 1 -9.63 -9.63 v -1.68 a 3.56 3.56 0 0 1 3.55 -3.56 h 18 a 3.57 3.57 0 0 1 3.56 3.56 v 1.68 A 9.64 9.64 0 0 1 217.33 130.08 Z m -11.94 -12.87 a 1.55 1.55 0 0 0 -1.55 1.56 v 1.68 a 7.64 7.64 0 0 0 7.63 7.63 h 5.86 a 7.65 7.65 0 0 0 7.64 -7.63 v -1.68 a 1.56 1.56 0 0 0 -1.56 -1.56 Z" stroke-linecap="round" />
</g>
		<g transform="matrix(1.01 0 0 1.01 44.04 -27.05)"  >
<path style="stroke: none; stroke-width: 1; stroke-dasharray: none; stroke-linecap: butt; stroke-dashoffset: 0; stroke-linejoin: miter; stroke-miterlimit: 4; fill: rgb(255,255,255); fill-rule: nonzero; opacity: 1;"  transform=" translate(-243.44, -122.64)" d="M 234.45 116.21 h 18 a 2.56 2.56 0 0 1 2.56 2.56 v 1.67 a 8.63 8.63 0 0 1 -8.63 8.63 h -5.87 a 8.63 8.63 0 0 1 -8.63 -8.63 v -1.67 A 2.56 2.56 0 0 1 234.45 116.21 Z" stroke-linecap="round" />
</g>
		<g transform="matrix(1.01 0 0 1.01 44.04 -27.06)"  >
<path style="stroke: none; stroke-width: 1; stroke-dasharray: none; stroke-linecap: butt; stroke-dashoffset: 0; stroke-linejoin: miter; stroke-miterlimit: 4; fill: rgb(9,63,104); fill-rule: nonzero; opacity: 1;"  transform=" translate(-243.45, -122.65)" d="M 246.39 130.08 h -5.86 a 9.64 9.64 0 0 1 -9.64 -9.63 v -1.68 a 3.57 3.57 0 0 1 3.56 -3.56 h 18 a 3.56 3.56 0 0 1 3.55 3.56 v 1.68 A 9.64 9.64 0 0 1 246.39 130.08 Z m -11.94 -12.87 a 1.56 1.56 0 0 0 -1.56 1.56 v 1.68 a 7.65 7.65 0 0 0 7.64 7.63 h 5.86 a 7.64 7.64 0 0 0 7.63 -7.63 v -1.68 a 1.55 1.55 0 0 0 -1.55 -1.56 Z" stroke-linecap="round" />
</g>
		<g transform="matrix(1.01 0 0 1.01 -0.12 -29.25)"  >
<path style="stroke: none; stroke-width: 1; stroke-dasharray: none; stroke-linecap: butt; stroke-dashoffset: 0; stroke-linejoin: miter; stroke-miterlimit: 4; fill: rgb(9,63,104); fill-rule: nonzero; opacity: 1;"  transform=" translate(-199.91, -120.45)" d="M 202.84 121.45 H 197 a 1 1 0 0 1 0 -2 h 5.81 a 1 1 0 0 1 0 2 Z" stroke-linecap="round" />
</g>
		<g transform="matrix(1.01 0 0 1.01 59.07 -29.25)"  >
<path style="stroke: none; stroke-width: 1; stroke-dasharray: none; stroke-linecap: butt; stroke-dashoffset: 0; stroke-linejoin: miter; stroke-miterlimit: 4; fill: rgb(9,63,104); fill-rule: nonzero; opacity: 1;"  transform=" translate(-258.22, -120.45)" d="M 261.12 121.45 h -5.8 a 1 1 0 0 1 0 -2 h 5.8 a 1 1 0 0 1 0 2 Z" stroke-linecap="round" />
</g>
		<g transform="matrix(1.01 0 0 1.01 29.37 -29.25)"  >
<path style="stroke: none; stroke-width: 1; stroke-dasharray: none; stroke-linecap: butt; stroke-dashoffset: 0; stroke-linejoin: miter; stroke-miterlimit: 4; fill: rgb(9,63,104); fill-rule: nonzero; opacity: 1;"  transform=" translate(-228.96, -120.45)" d="M 231.89 121.45 H 226 a 1 1 0 0 1 0 -2 h 5.92 a 1 1 0 0 1 0 2 Z" stroke-linecap="round" />
</g>
		<g transform="matrix(1.01 0 0 1.01 28.88 -6.98)"  >
<path style="stroke: none; stroke-width: 1; stroke-dasharray: none; stroke-linecap: butt; stroke-dashoffset: 0; stroke-linejoin: miter; stroke-miterlimit: 4; fill: rgb(9,63,104); fill-rule: nonzero; opacity: 1;"  transform=" translate(-228.51, -142.4)" d="M 228.33 144.33 a 28.87 28.87 0 0 1 -10.44 -1.91 a 1 1 0 0 1 0.72 -1.87 a 29.23 29.23 0 0 0 19.77 0 a 1 1 0 0 1 0.77 1.85 A 30.56 30.56 0 0 1 228.33 144.33 Z" stroke-linecap="round" />
</g>
		<g transform="matrix(1.01 0 0 1.01 62.82 57.77)"  >
<path style="stroke: none; stroke-width: 1; stroke-dasharray: none; stroke-linecap: butt; stroke-dashoffset: 0; stroke-linejoin: miter; stroke-miterlimit: 4; fill: rgb(9,63,104); fill-rule: nonzero; opacity: 1;"  transform=" translate(-261.93, -206.2)" d="M 256.41 208.32 a 1 1 0 0 1 -1 -0.8 a 1 1 0 0 1 0.78 -1.18 l 11.06 -2.26 a 1 1 0 0 1 0.4 2 l -11.06 2.25 A 0.64 0.64 0 0 1 256.41 208.32 Z" stroke-linecap="round" />
</g>
		<g transform="matrix(1.01 0 0 1.01 -4.07 57.73)"  >
<path style="stroke: none; stroke-width: 1; stroke-dasharray: none; stroke-linecap: butt; stroke-dashoffset: 0; stroke-linejoin: miter; stroke-miterlimit: 4; fill: rgb(9,63,104); fill-rule: nonzero; opacity: 1;"  transform=" translate(-196.03, -206.15)" d="M 201.57 208.32 a 0.64 0.64 0 0 1 -0.2 0 L 190.31 206 a 1 1 0 1 1 0.4 -2 l 11.06 2.26 a 1 1 0 0 1 0.78 1.18 A 1 1 0 0 1 201.57 208.32 Z" stroke-linecap="round" />
</g>
		<g transform="matrix(1.01 0 0 1.01 29.2 57.67)"  >
<path style="stroke: none; stroke-width: 1; stroke-dasharray: none; stroke-linecap: butt; stroke-dashoffset: 0; stroke-linejoin: miter; stroke-miterlimit: 4; fill: rgb(245,97,50); fill-rule: nonzero; opacity: 1;"  transform=" translate(-228.94, -206.18)" d="M 200.76 187.36 H 257.1 a 4.78 4.78 0 0 1 4.78 4.78 V 225 a 0 0 0 0 1 0 0 H 196 a 0 0 0 0 1 0 0 V 192.14 A 4.78 4.78 0 0 1 200.76 187.36 Z" stroke-linecap="round" />
</g>
		<g transform="matrix(1.01 0 0 1.01 29.2 57.67)"  >
<path style="stroke: none; stroke-width: 1; stroke-dasharray: none; stroke-linecap: butt; stroke-dashoffset: 0; stroke-linejoin: miter; stroke-miterlimit: 4; fill: rgb(9,63,104); fill-rule: nonzero; opacity: 1;"  transform=" translate(-228.94, -206.18)" d="M 261.88 226 H 196 a 1 1 0 0 1 -1 -1 V 192.14 a 5.78 5.78 0 0 1 5.78 -5.78 H 257.1 a 5.78 5.78 0 0 1 5.78 5.78 V 225 A 1 1 0 0 1 261.88 226 Z M 197 224 h 63.9 V 192.14 a 3.79 3.79 0 0 0 -3.78 -3.78 H 200.76 a 3.79 3.79 0 0 0 -3.78 3.78 Z" stroke-linecap="round" />
</g>
		<g transform="matrix(1.01 0 0 1.01 29.18 79.31)"  >
<path style="stroke: none; stroke-width: 1; stroke-dasharray: none; stroke-linecap: butt; stroke-dashoffset: 0; stroke-linejoin: miter; stroke-miterlimit: 4; fill: rgb(245,97,50); fill-rule: nonzero; opacity: 1;"  transform=" translate(-228.94, -227.41)" d="M 192.78 225 h 72.31 a 0 0 0 0 1 0 0 v 0 a 4.82 4.82 0 0 1 -4.82 4.82 H 197.6 a 4.82 4.82 0 0 1 -4.82 -4.82 v 0 A 0 0 0 0 1 192.78 225 Z" stroke-linecap="round" />
</g>
		<g transform="matrix(1.01 0 0 1.01 29.18 79.32)"  >
<path style="stroke: none; stroke-width: 1; stroke-dasharray: none; stroke-linecap: butt; stroke-dashoffset: 0; stroke-linejoin: miter; stroke-miterlimit: 4; fill: rgb(9,63,104); fill-rule: nonzero; opacity: 1;"  transform=" translate(-228.93, -227.43)" d="M 260.26 230.84 H 197.6 a 5.83 5.83 0 0 1 -5.82 -5.82 a 1 1 0 0 1 1 -1 h 72.3 a 1 1 0 0 1 1 1 A 5.83 5.83 0 0 1 260.26 230.84 Z M 193.91 226 a 3.83 3.83 0 0 0 3.69 2.82 h 62.66 A 3.83 3.83 0 0 0 264 226 Z" stroke-linecap="round" />
</g>
		<g transform="matrix(1.01 0 0 1.01 28.61 29.48)"  >
<path style="stroke: none; stroke-width: 1; stroke-dasharray: none; stroke-linecap: butt; stroke-dashoffset: 0; stroke-linejoin: miter; stroke-miterlimit: 4; fill: rgb(9,63,104); fill-rule: nonzero; opacity: 1;"  transform=" translate(-228.19, -178.36)" d="M 228.19 188.36 a 1 1 0 0 1 -1 -1 v -18 a 1 1 0 0 1 2 0 v 18 A 1 1 0 0 1 228.19 188.36 Z" stroke-linecap="round" />
</g>
		<g transform="matrix(1.01 0 0 1.01 -53.51 67.03)"  >
<path style="stroke: none; stroke-width: 1; stroke-dasharray: none; stroke-linecap: butt; stroke-dashoffset: 0; stroke-linejoin: miter; stroke-miterlimit: 4; fill: rgb(255,188,14); fill-rule: nonzero; opacity: 1;"  transform=" translate(-147.36, -215.38)" d="M 133.36 200.91 h 28 a 0 0 0 0 1 0 0 v 19.74 a 9.19 9.19 0 0 1 -9.19 9.19 h -9.62 a 9.19 9.19 0 0 1 -9.19 -9.19 V 200.91 A 0 0 0 0 1 133.36 200.91 Z" stroke-linecap="round" />
</g>
		<g transform="matrix(1.01 0 0 1.01 -53.5 67.02)"  >
<path style="stroke: none; stroke-width: 1; stroke-dasharray: none; stroke-linecap: butt; stroke-dashoffset: 0; stroke-linejoin: miter; stroke-miterlimit: 4; fill: rgb(9,63,104); fill-rule: nonzero; opacity: 1;"  transform=" translate(-147.36, -215.38)" d="M 152.17 230.84 h -9.62 a 10.2 10.2 0 0 1 -10.19 -10.19 V 200.91 a 1 1 0 0 1 1 -1 h 28 a 1 1 0 0 1 1 1 v 19.74 A 10.2 10.2 0 0 1 152.17 230.84 Z m -17.81 -28.93 v 18.74 a 8.19 8.19 0 0 0 8.19 8.19 h 9.62 a 8.2 8.2 0 0 0 8.19 -8.19 V 201.91 Z" stroke-linecap="round" />
</g>
		<g transform="matrix(1.01 0 0 1.01 -0.45 87.72)"  >
<rect style="stroke: none; stroke-width: 1; stroke-dasharray: none; stroke-linecap: butt; stroke-dashoffset: 0; stroke-linejoin: miter; stroke-miterlimit: 4; fill: rgb(114,88,88); fill-rule: nonzero; opacity: 1;"  x="-89.49" y="-5.875" rx="5.88" ry="5.88" width="178.98" height="11.75" />
</g>
		<g transform="matrix(1.01 0 0 1.01 -0.46 87.71)"  >
<path style="stroke: none; stroke-width: 1; stroke-dasharray: none; stroke-linecap: butt; stroke-dashoffset: 0; stroke-linejoin: miter; stroke-miterlimit: 4; fill: rgb(9,63,104); fill-rule: nonzero; opacity: 1;"  transform=" translate(-200, -235.72)" d="M 283.61 242.59 H 116.39 a 6.88 6.88 0 1 1 0 -13.75 H 283.61 a 6.88 6.88 0 1 1 0 13.75 Z M 116.39 230.84 a 4.88 4.88 0 1 0 0 9.75 H 283.61 a 4.88 4.88 0 1 0 0 -9.75 Z" stroke-linecap="round" />
</g>
		<g transform="matrix(1.01 0 0 1.01 -33.81 63.7)"  >
<path style="stroke: none; stroke-width: 1; stroke-dasharray: none; stroke-linecap: butt; stroke-dashoffset: 0; stroke-linejoin: miter; stroke-miterlimit: 4; fill: rgb(9,63,104); fill-rule: nonzero; opacity: 1;"  transform=" translate(-166.72, -212.06)" d="M 163 221 h -1.63 a 1 1 0 0 1 -1 -1 V 204.13 a 1 1 0 0 1 1 -1 H 163 A 9 9 0 1 1 163 221 Z m -0.63 -2 H 163 a 7 7 0 1 0 0 -13.91 h -0.63 Z" stroke-linecap="round" />
</g>
		<g transform="matrix(1.01 0 0 1.01 -55.62 -9.52)"  >
<rect style="stroke: none; stroke-width: 1; stroke-dasharray: none; stroke-linecap: butt; stroke-dashoffset: 0; stroke-linejoin: miter; stroke-miterlimit: 4; fill: rgb(255,255,255); fill-rule: nonzero; opacity: 1;"  x="-32.14" y="-27.035" rx="2.5" ry="2.5" width="64.28" height="54.07" />
</g>
		<g transform="matrix(1.01 0 0 1.01 -55.62 -9.53)"  >
<path style="stroke: none; stroke-width: 1; stroke-dasharray: none; stroke-linecap: butt; stroke-dashoffset: 0; stroke-linejoin: miter; stroke-miterlimit: 4; fill: rgb(9,63,104); fill-rule: nonzero; opacity: 1;"  transform=" translate(-145.36, -140.01)" d="M 175 168.05 H 115.71 a 3.5 3.5 0 0 1 -3.49 -3.5 V 115.47 a 3.49 3.49 0 0 1 3.49 -3.49 H 175 a 3.5 3.5 0 0 1 3.5 3.49 v 49.08 A 3.5 3.5 0 0 1 175 168.05 Z M 115.71 114 a 1.49 1.49 0 0 0 -1.49 1.49 v 49.08 a 1.5 1.5 0 0 0 1.49 1.5 H 175 a 1.5 1.5 0 0 0 1.5 -1.5 V 115.47 A 1.5 1.5 0 0 0 175 114 Z" stroke-linecap="round" />
</g>
		<g transform="matrix(1.01 0 0 1.01 -55.62 -33.36)"  >
<path style="stroke: none; stroke-width: 1; stroke-dasharray: none; stroke-linecap: butt; stroke-dashoffset: 0; stroke-linejoin: miter; stroke-miterlimit: 4; fill: rgb(104,225,253); fill-rule: nonzero; opacity: 1;"  transform=" translate(-145.36, -116.41)" d="M 115.71 113 H 175 a 2.5 2.5 0 0 1 2.5 2.5 v 4.33 a 0 0 0 0 1 0 0 H 113.22 a 0 0 0 0 1 0 0 v -4.33 A 2.5 2.5 0 0 1 115.71 113 Z" stroke-linecap="round" />
</g>
		<g transform="matrix(1.01 0 0 1.01 -55.62 -33.39)"  >
<path style="stroke: none; stroke-width: 1; stroke-dasharray: none; stroke-linecap: butt; stroke-dashoffset: 0; stroke-linejoin: miter; stroke-miterlimit: 4; fill: rgb(9,63,104); fill-rule: nonzero; opacity: 1;"  transform=" translate(-145.36, -116.39)" d="M 177.5 120.81 H 113.22 a 1 1 0 0 1 -1 -1 v -4.34 a 3.49 3.49 0 0 1 3.49 -3.49 H 175 a 3.5 3.5 0 0 1 3.5 3.49 v 4.34 A 1 1 0 0 1 177.5 120.81 Z m -63.28 -2 H 176.5 v -3.34 A 1.5 1.5 0 0 0 175 114 H 115.71 a 1.49 1.49 0 0 0 -1.49 1.49 Z" stroke-linecap="round" />
</g>
		<g transform="matrix(1.01 0 0 1.01 -83.02 -33.37)"  >
<circle style="stroke: none; stroke-width: 1; stroke-dasharray: none; stroke-linecap: butt; stroke-dashoffset: 0; stroke-linejoin: miter; stroke-miterlimit: 4; fill: rgb(9,63,104); fill-rule: nonzero; opacity: 1;"  cx="0" cy="0" r="1.34" />
</g>
		<g transform="matrix(1.01 0 0 1.01 -79.22 -33.37)"  >
<circle style="stroke: none; stroke-width: 1; stroke-dasharray: none; stroke-linecap: butt; stroke-dashoffset: 0; stroke-linejoin: miter; stroke-miterlimit: 4; fill: rgb(9,63,104); fill-rule: nonzero; opacity: 1;"  cx="0" cy="0" r="1.34" />
</g>
		<g transform="matrix(1.01 0 0 1.01 -75.4 -33.37)"  >
<circle style="stroke: none; stroke-width: 1; stroke-dasharray: none; stroke-linecap: butt; stroke-dashoffset: 0; stroke-linejoin: miter; stroke-miterlimit: 4; fill: rgb(9,63,104); fill-rule: nonzero; opacity: 1;"  cx="0" cy="0" r="1.34" />
</g>
		<g transform="matrix(1.01 0 0 1.01 -71.39 -6.52)"  >
<path style="stroke: none; stroke-width: 1; stroke-dasharray: none; stroke-linecap: butt; stroke-dashoffset: 0; stroke-linejoin: miter; stroke-miterlimit: 4; fill: rgb(9,63,104); fill-rule: nonzero; opacity: 1;"  transform=" translate(-129.71, -142.89)" d="M 137.09 138.65 l -9.25 4.22 v 0.07 l 9.25 4.22 v 4.62 l -14.77 -6.73 v -4.29 L 137.09 134 Z" stroke-linecap="round" />
</g>
		<g transform="matrix(1.01 0 0 1.01 -55.5 -8.29)"  >
<path style="stroke: none; stroke-width: 1; stroke-dasharray: none; stroke-linecap: butt; stroke-dashoffset: 0; stroke-linejoin: miter; stroke-miterlimit: 4; fill: rgb(9,63,104); fill-rule: nonzero; opacity: 1;"  transform=" translate(-145.35, -141.16)" d="M 148.06 127.33 l 3.32 1.19 L 142.63 155 l -3.3 -1.19 Z" stroke-linecap="round" />
</g>
		<g transform="matrix(1.01 0 0 1.01 -39.61 -6.53)"  >
<path style="stroke: none; stroke-width: 1; stroke-dasharray: none; stroke-linecap: butt; stroke-dashoffset: 0; stroke-linejoin: miter; stroke-miterlimit: 4; fill: rgb(9,63,104); fill-rule: nonzero; opacity: 1;"  transform=" translate(-161.01, -142.88)" d="M 153.63 147.16 l 9.25 -4.22 v -0.07 l -9.25 -4.22 V 134 l 14.76 6.73 v 4.29 l -14.76 6.73 Z" stroke-linecap="round" />
</g>
</g>
</g>
</svg>